{
    "accessors" : [
        {
            "bufferView" : 0,
            "componentType" : 5121,
            "count" : 240,
            "max" : [
                239
            ],
            "min" : [
                0
            ],
            "type" : "SCALAR"
        },
        {
            "bufferView" : 1,
            "componentType" : 5126,
            "count" : 240,
            "max" : [
                0.9510578513145447,
                1.0,
                0.9999999403953552
            ],
            "min" : [
                -0.9510578513145447,
                -1.0,
                -0.9999999403953552
            ],
            "type" : "VEC3"
        },
        {
            "bufferView" : 2,
            "componentType" : 5126,
            "count" : 240,
            "max" : [
                0.9920774102210999,
                0.9435237646102905,
                0.9435215592384338
            ],
            "min" : [
                -0.9920774102210999,
                -0.9435237646102905,
                -0.9435215592384338
            ],
            "type" : "VEC3"
        },
        {
            "bufferView" : 3,
            "componentType" : 5123,
            "count" : 1320,
            "max" : [
                879
            ],
            "min" : [
                0
            ],
            "type" : "SCALAR"
        },
        {
            "bufferView" : 4,
            "componentType" : 5126,
            "count" : 880,
            "max" : [
                2.9971296787261963,
                1.2381279468536377,
                0.6290287971496582
            ],
            "min" : [
                -3.163344144821167,
                -2.754920482635498,
                -0.6290287971496582
            ],
            "type" : "VEC3"
        },
        {
            "bufferView" : 5,
            "componentType" : 5126,
            "count" : 880,
            "max" : [
                0.9928423166275024,
                0.9999995231628418,
                1.0
            ],
            "min" : [
                -0.9978463649749756,
                -0.9999995231628418,
                -1.0
            ],
            "type" : "VEC3"
        },
        {
            "bufferView" : 6,
            "componentType" : 5123,
            "count" : 40512,
            "max" : [
                26679
            ],
            "min" : [
                0
            ],
            "type" : "SCALAR"
        },
        {
            "bufferView" : 7,
            "componentType" : 5126,
            "count" : 26680,
            "max" : [
                0.3069332242012024,
                3.104473114013672,
                0.8667051196098328
            ],
            "min" : [
                -4.531641006469727,
                -1.7038525342941284,
                -1.2223992347717285
            ],
            "type" : "VEC3"
        },
        {
            "bufferView" : 8,
            "componentType" : 5126,
            "count" : 26680,
            "max" : [
                0.9793564677238464,
                0.9979737997055054,
                0.9857087731361389
            ],
            "min" : [
                -0.9935211539268494,
                -0.9369078874588013,
                -0.9916639924049377
            ],
            "type" : "VEC3"
        }
    ],
    "asset" : {
        "generator" : "Khronos Blender glTF 2.0 exporter",
        "version" : "2.0"
    },
    "bufferViews" : [
        {
            "buffer" : 0,
            "byteLength" : 240,
            "byteOffset" : 0,
            "target" : 34963
        },
        {
            "buffer" : 0,
            "byteLength" : 2880,
            "byteOffset" : 240,
            "target" : 34962
        },
        {
            "buffer" : 0,
            "byteLength" : 2880,
            "byteOffset" : 3120,
            "target" : 34962
        },
        {
            "buffer" : 0,
            "byteLength" : 2640,
            "byteOffset" : 6000,
            "target" : 34963
        },
        {
            "buffer" : 0,
            "byteLength" : 10560,
            "byteOffset" : 8640,
            "target" : 34962
        },
        {
            "buffer" : 0,
            "byteLength" : 10560,
            "byteOffset" : 19200,
            "target" : 34962
        },
        {
            "buffer" : 0,
            "byteLength" : 81024,
            "byteOffset" : 29760,
            "target" : 34963
        },
        {
            "buffer" : 0,
            "byteLength" : 320160,
            "byteOffset" : 110784,
            "target" : 34962
        },
        {
            "buffer" : 0,
            "byteLength" : 320160,
            "byteOffset" : 430944,
            "target" : 34962
        }
    ],
    "buffers" : [
        {
            "byteLength" : 751104,
            "uri" : "data:application/octet-stream;base64,"
        }
    ],
    "materials" : [
        {
            "name" : "Material.001",
            "pbrMetallicRoughness" : {
                "baseColorFactor" : [
                    0.3928166686418155,
                    0.1938249259266991,
                    0.07991898774979989,
                    1.0
                ],
                "metallicFactor" : 0.0
            }
        },
        {
            "name" : "Material.002",
            "pbrMetallicRoughness" : {
                "baseColorFactor" : [
                    0.3928166686418155,
                    0.1938249259266991,
                    0.07991898774979989,
                    1.0
                ],
                "metallicFactor" : 0.0
            }
        },
        {
            "name" : "Material.003",
            "pbrMetallicRoughness" : {
                "baseColorFactor" : [
                    0.44838891697509453,
                    0.640000066757203,
                    0.22950399263954147,
                    1.0
                ],
                "metallicFactor" : 0.0
            }
        }
    ],
    "meshes" : [
        {
            "name" : "Icosphere",
            "primitives" : [
                {
                    "attributes" : {
                        "NORMAL" : 2,
                        "POSITION" : 1
                    },
                    "indices" : 0,
                    "material" : 2
                }
            ]
        },
        {
            "name" : "Plane.001",
            "primitives" : [
                {
                    "attributes" : {
                        "NORMAL" : 5,
                        "POSITION" : 4
                    },
                    "indices" : 3,
                    "material" : 1
                }
            ]
        },
        {
            "name" : "Cube.004",
            "primitives" : [
                {
                    "attributes" : {
                        "NORMAL" : 8,
                        "POSITION" : 7
                    },
                    "indices" : 6,
                    "material" : 0
                }
            ]
        }
    ],
    "nodes" : [
        {
            "name" : "Camera",
            "rotation" : [
                0.483536034822464,
                0.33687159419059753,
                -0.20870360732078552,
                0.7804827094078064
            ],
            "scale" : [
                0.8906539678573608,
                0.8906540274620056,
                0.8906540274620056
            ],
            "translation" : [
                6.858158111572266,
                10.454750061035156,
                5.6688947677612305
            ]
        },
        {
            "mesh" : 2,
            "name" : "Cube",
            "scale" : [
                0.8684049248695374,
                0.8684049248695374,
                0.8684049248695374
            ],
            "translation" : [
                -1.4189143180847168,
                11.64928150177002,
                0.5505955815315247
            ]
        },
        {
            "mesh" : 0,
            "name" : "Icosphere",
            "scale" : [
                4.34938383102417,
                4.34938383102417,
                4.34938383102417
            ],
            "translation" : [
                1.225492238998413,
                3.053204298019409,
                -0.06738263368606567
            ]
        },
        {
            "name" : "Lamp",
            "rotation" : [
                0.16907575726509094,
                0.7558802962303162,
                -0.27217134833335876,
                0.5709474682807922
            ],
            "scale" : [
                0.8906540274620056,
                0.8906540274620056,
                0.8906541466712952
            ],
            "translation" : [
                3.825582265853882,
                10.953691482543945,
                -1.022672414779663
            ]
        },
        {
            "mesh" : 1,
            "name" : "Plane.001",
            "rotation" : [
                0.0,
                1.0,
                -0.0,
                -1.6292068494294654e-07
            ],
            "scale" : [
                0.8906540274620056,
                0.8906540274620056,
                0.8906540274620056
            ],
            "translation" : [
                0.8609349727630615,
                9.212136268615723,
                -0.032036662101745605
            ]
        }
    ],
    "scene" : 0,
    "scenes" : [
        {
            "name" : "Scene",
            "nodes" : [
                2,
                1,
                4,
                3,
                0
            ]
        }
    ]
}
